<?xml version="1.0" encoding="utf-8"?>
<!-- Generator: Adobe Illustrator 24.3.0, SVG Export Plug-In . SVG Version: 6.00 Build 0)  -->
<svg version="1.1" id="Layer_1" xmlns="http://www.w3.org/2000/svg" xmlns:xlink="http://www.w3.org/1999/xlink" x="0px" y="0px"
	 viewBox="0 0 478.5 151.3" style="enable-background:new 0 0 478.5 151.3;" xml:space="preserve">
<style type="text/css">
	.st0{fill:#FFFFFF;}
	.st1{opacity:0.25;fill:#FFFFFF;enable-background:new    ;}
	.st2{opacity:0.28;fill:#FFFFFF;enable-background:new    ;}
	.st3{opacity:0.7;fill:#FFFFFF;enable-background:new    ;}
	.st4{opacity:0.8;fill:#FFFFFF;enable-background:new    ;}
	.st5{opacity:0.43;fill:#FFFFFF;enable-background:new    ;}
	.st6{opacity:0.23;fill:#FFFFFF;enable-background:new    ;}
	.st7{opacity:0.55;fill:#FFFFFF;enable-background:new    ;}
	.st8{opacity:0.5;fill:#FFFFFF;enable-background:new    ;}
	.st9{opacity:0.4;fill:#FFFFFF;enable-background:new    ;}
	.st10{opacity:0.65;fill:#FFFFFF;enable-background:new    ;}
	.st11{opacity:0.3;fill:#FFFFFF;enable-background:new    ;}
</style>
<g>
	<g id="Generic">
		<path class="st0" d="M65.1,136.8c0.5-0.1,1.2-0.2,1.9-0.3c0.7-0.1,1.3-0.3,1.9-0.5c0.5-0.2,0.9-0.6,1.1-1.1
			c0.2-0.5,0.3-0.9,0.4-1.4c0.2-0.6,0.2-1.3,0.1-1.9c-0.1-0.6-0.3-1.1-0.7-1.5c-0.4-0.5-1-0.8-1.6-1c-0.9-0.3-1.7-0.4-2.6-0.4
			c-1.7,0-3.5,0.4-5,1.2c-1.6,0.9-2.7,2.5-3.1,4.2h-2.8c0.4-1.3,0.9-2.5,1.7-3.6c0.7-1,1.6-1.8,2.7-2.4c1-0.6,2.2-1.1,3.3-1.4
			c1.2-0.3,2.5-0.4,3.7-0.4c1.1,0,2.2,0.1,3.3,0.4c0.9,0.2,1.8,0.6,2.5,1.2c0.7,0.6,1.1,1.4,1.3,2.3c0.3,1.1,0.3,2.3,0,3.5l-2.8,13
			c-0.3,1.1-0.2,1.8,0.1,2.1s1.1,0.2,2.4-0.2l-0.5,2.1l-1,0.3c-0.4,0.1-0.8,0.2-1.3,0.2c-0.4,0-0.8,0-1.2-0.1
			c-0.9-0.1-1.4-0.6-1.5-1.3c-0.1-0.8-0.1-1.5,0-2.3c-1.4,1.3-2.9,2.3-4.6,3c-1.6,0.7-3.3,1-5.1,1c-1,0-2-0.1-2.9-0.4
			c-0.8-0.3-1.6-0.7-2.2-1.4c-0.6-0.6-1-1.3-1.3-2.1c-0.2-1-0.2-2,0-3c0.8-4.1,4.1-6.4,9.8-7.2L65.1,136.8z M69.4,138.2
			c-1.2,0.5-2.5,0.8-3.8,1c-1.2,0.2-2.4,0.3-3.7,0.4c-1.8,0.1-3.6,0.6-5.3,1.4c-1.4,0.8-2.3,2.1-2.5,3.6c-0.2,0.6-0.2,1.3,0,1.9
			c0.2,0.5,0.5,1,0.9,1.3c0.4,0.4,0.9,0.6,1.5,0.8c0.6,0.2,1.2,0.3,1.8,0.3c1.1,0,2.2-0.1,3.3-0.4c1.1-0.3,2.1-0.7,3-1.3
			c0.9-0.6,1.8-1.3,2.4-2.2c0.7-0.9,1.2-2,1.4-3.1L69.4,138.2z"/>
		<path class="st0" d="M85.1,150.8c-0.3,0.1-0.8,0.2-1.4,0.3c-0.6,0.2-1.3,0.2-1.9,0.2c-1.1,0.1-2.2-0.2-2.9-1
			c-0.6-0.7-0.7-1.9-0.3-3.7l3.7-17.4h-3.3l0.5-2.3h3.4l1.4-6.6h2.8l-1.4,6.6H90l-0.5,2.3H85l-3.4,16.3c-0.1,0.6-0.2,1.1-0.3,1.5
			c-0.1,0.4,0,0.7,0.1,1.1c0.1,0.3,0.3,0.5,0.6,0.6c0.4,0.1,0.9,0.2,1.3,0.2c0.4,0,0.7,0,1.1-0.1c0.4-0.1,0.8-0.1,1.2-0.2
			L85.1,150.8z"/>
		<path class="st0" d="M93.6,139.4c-0.3,1.2-0.4,2.4-0.3,3.6c0.1,1.1,0.4,2.1,0.9,3c0.5,0.8,1.2,1.5,2.1,2c1,0.5,2.2,0.8,3.3,0.8
			c1.8,0,3.5-0.5,4.9-1.4c1.5-1,2.7-2.4,3.4-4.1h3.1c-0.6,1.1-1.2,2.2-2,3.1c-0.7,1-1.6,1.8-2.6,2.5c-1,0.7-2.1,1.3-3.3,1.7
			c-1.3,0.4-2.7,0.6-4.1,0.6c-1.6,0-3.2-0.3-4.7-1c-1.2-0.6-2.2-1.5-2.9-2.6c-0.7-1.2-1.1-2.6-1.1-3.9c-0.1-1.6,0.1-3.3,0.4-4.9
			c0.4-1.7,1-3.4,1.8-4.9c0.8-1.5,1.8-2.8,3-4c1.2-1.1,2.5-2.1,4-2.7c1.5-0.7,3.2-1,4.8-1c3.3,0,5.6,1.1,7,3.4
			c1.4,2.3,1.6,5.5,0.7,9.8L93.6,139.4z M109.6,137.1c0.2-1.1,0.3-2.2,0.2-3.3c-0.1-0.9-0.4-1.9-0.8-2.7c-0.5-0.8-1.2-1.4-2-1.8
			c-1-0.5-2-0.7-3.1-0.7c-1.2,0-2.3,0.2-3.4,0.7c-1,0.5-2,1.1-2.8,1.8c-0.8,0.8-1.6,1.7-2.2,2.7c-0.6,1-1.1,2.1-1.5,3.2L109.6,137.1
			z"/>
		<polygon class="st0" points="113.3,150.7 113.8,148.2 133.7,129.1 118.9,129.1 119.4,126.8 137.7,126.8 137.2,129.3 117.3,148.4 
			133.8,148.4 133.3,150.7 		"/>
		<path class="st0" d="M147.4,151.3c-1.4,0-2.8-0.3-4.1-0.8c-1.2-0.5-2.2-1.3-3-2.4c-0.8-1.2-1.4-2.5-1.5-3.9
			c-0.2-1.8-0.1-3.7,0.3-5.5c0.3-1.7,0.9-3.3,1.7-4.9c0.7-1.5,1.7-2.8,2.9-4c1.2-1.1,2.5-2,4-2.7c1.6-0.7,3.3-1,5-1
			c1.6-0.1,3.2,0.3,4.7,1c1.2,0.6,2.2,1.5,2.9,2.7c0.7,1.2,1.1,2.6,1.2,4c0.1,1.6,0,3.3-0.4,4.9c-0.4,1.8-1,3.5-1.9,5.1
			c-0.8,1.5-1.8,2.8-3.1,4c-1.2,1.1-2.5,1.9-4,2.6C150.6,151,149,151.3,147.4,151.3z M158.2,138.8c0.3-1.3,0.4-2.6,0.4-3.9
			c0-1.1-0.2-2.2-0.7-3.2c-0.4-0.9-1.1-1.6-2-2.1c-1.1-0.6-2.3-0.8-3.6-0.8c-1.3,0-2.7,0.3-3.9,0.9c-1.1,0.6-2.1,1.3-3,2.3
			c-0.9,1-1.6,2-2.1,3.2c-0.6,1.2-1,2.5-1.3,3.7c-0.3,1.3-0.4,2.7-0.3,4.1c0.1,1.1,0.4,2.2,0.9,3.2c0.5,0.9,1.2,1.6,2.1,2.1
			c1,0.5,2.2,0.8,3.3,0.7c1.3,0,2.7-0.3,3.9-0.8c1.1-0.6,2.2-1.3,3-2.3c0.8-1,1.6-2.1,2.1-3.2C157.5,141.3,157.9,140,158.2,138.8z"
			/>
		<polygon class="st0" points="164.1,150.7 171.1,117.6 173.9,117.6 166.8,150.7 		"/>
		<path class="st0" d="M174.3,150.7l5.1-23.8h2.8l-5.1,23.8H174.3z M180.3,121.7l0.9-4.1h3l-0.9,4.1H180.3z"/>
		<polygon class="st0" points="182.3,150.7 182.8,148.2 202.6,129.1 187.9,129.1 188.4,126.8 206.7,126.8 206.2,129.3 186.3,148.4 
			202.7,148.4 202.2,150.7 		"/>
		<path class="st0" d="M228.2,126.8h2.8l-5,23.8h-2.8l0.7-3.3c-0.5,0.4-1,0.9-1.5,1.3c-0.6,0.5-1.2,0.9-1.9,1.3
			c-0.7,0.4-1.5,0.8-2.3,1c-2.2,0.6-4.5,0.5-6.7-0.3c-0.9-0.4-1.7-1-2.2-1.9c-0.5-0.8-0.8-1.8-0.8-2.8c-0.1-1.2,0.1-2.3,0.3-3.5
			l3.3-15.7h2.8l-3.3,15.6c-0.4,2.1-0.3,3.6,0.4,4.7s2.2,1.6,4.4,1.6c1.1,0,2.2-0.2,3.2-0.7c1-0.4,1.9-1.1,2.7-1.9
			c0.8-0.8,1.5-1.8,2-2.9c0.6-1.1,1-2.4,1.3-3.6L228.2,126.8z"/>
		<path class="st0" d="M235,150.7h-2.8l5.1-23.8h2.8l-0.7,3.6h0.1c0.9-1.3,2.2-2.4,3.7-3.1c1.4-0.7,3-1.1,4.5-1.1
			c0.9,0,1.8,0.1,2.7,0.4c0.6,0.2,1.2,0.5,1.8,1c0.4,0.4,0.8,0.9,1,1.4c0.2,0.6,0.4,1.2,0.5,1.8c2-2.9,5.2-4.6,8.7-4.6
			c1.3-0.1,2.6,0.2,3.7,0.8c0.8,0.5,1.5,1.2,1.8,2.1c0.3,1,0.5,2,0.4,3c-0.1,1.2-0.2,2.3-0.5,3.5l-3.2,15h-2.8l3.5-16.4
			c0.2-0.8,0.3-1.5,0.3-2.3c0-0.6-0.1-1.2-0.5-1.7c-0.3-0.5-0.8-0.9-1.3-1.1c-0.8-0.3-1.6-0.4-2.4-0.4c-1.1,0-2.1,0.2-3.1,0.7
			c-1.1,0.5-2.1,1.2-2.9,2.1c-0.4,0.4-0.7,0.9-1,1.4c-0.3,0.5-0.6,1.1-0.9,1.7c-0.2,0.6-0.5,1.2-0.6,1.8c-0.2,0.5-0.3,1.1-0.4,1.6
			l-2.7,12.8h-2.8l3.5-16.5c0.2-0.8,0.3-1.5,0.3-2.3c0-0.6-0.2-1.2-0.5-1.7c-0.3-0.5-0.8-0.9-1.3-1.1c-0.8-0.3-1.6-0.4-2.4-0.4
			c-1.1,0-2.1,0.2-3.1,0.7c-1.1,0.5-2.1,1.2-2.9,2.1c-0.4,0.4-0.7,0.9-1,1.4c-0.3,0.5-0.6,1.1-0.9,1.7c-0.2,0.6-0.5,1.2-0.6,1.8
			c-0.2,0.5-0.3,1.1-0.4,1.6L235,150.7z"/>
		<path class="st0" d="M284.8,136.8c0.5-0.1,1.2-0.2,1.9-0.3c0.7-0.1,1.3-0.3,1.9-0.5c0.5-0.2,0.9-0.6,1.1-1.1
			c0.2-0.5,0.3-0.9,0.4-1.4c0.1-0.6,0.2-1.3,0.1-1.9c-0.1-0.6-0.3-1.1-0.7-1.5c-0.4-0.5-1-0.8-1.6-1c-0.9-0.3-1.7-0.4-2.6-0.4
			c-1.7,0-3.5,0.4-5,1.2c-1.6,0.9-2.7,2.5-3.1,4.2h-2.8c0.3-1.3,0.9-2.5,1.7-3.6c0.7-1,1.6-1.8,2.6-2.4c1-0.6,2.2-1.1,3.3-1.4
			c1.2-0.3,2.5-0.4,3.7-0.4c1.1,0,2.2,0.1,3.3,0.4c0.9,0.2,1.8,0.6,2.5,1.2c0.7,0.6,1.2,1.4,1.4,2.3c0.2,1.2,0.2,2.3,0,3.5l-2.8,13
			c-0.3,1.1-0.2,1.8,0.1,2.1s1.1,0.2,2.4-0.2l-0.5,2.2l-1,0.3c-0.4,0.1-0.8,0.2-1.3,0.2c-0.4,0-0.8,0-1.2-0.1
			c-0.9-0.1-1.4-0.6-1.5-1.3c-0.1-0.8-0.1-1.5,0-2.3c-1.4,1.3-2.9,2.3-4.6,3c-1.6,0.7-3.3,1-5.1,1c-1,0-2-0.1-2.9-0.4
			c-0.8-0.3-1.6-0.8-2.2-1.4c-0.6-0.6-1.1-1.3-1.3-2.1c-0.2-1-0.2-2,0-3c0.8-4.1,4.1-6.4,9.8-7.2L284.8,136.8z M289.2,138.2
			c-1.2,0.5-2.5,0.8-3.8,1c-1.2,0.2-2.4,0.3-3.6,0.4c-1.8,0.1-3.6,0.6-5.3,1.4c-1.3,0.8-2.3,2.1-2.5,3.6c-0.2,0.6-0.1,1.3,0,1.9
			c0.2,0.5,0.5,1,0.9,1.3c0.4,0.4,1,0.6,1.5,0.8c0.6,0.2,1.2,0.3,1.8,0.3c1.1,0,2.2-0.1,3.3-0.4c1.1-0.3,2.1-0.7,3-1.3
			c0.9-0.6,1.7-1.3,2.4-2.2c0.7-0.9,1.2-2,1.4-3.1L289.2,138.2z"/>
		<path class="st0" d="M299.6,150.7h-2.8l7-33.1h2.8l-2.8,13.1c1.2-1.4,2.7-2.6,4.4-3.3c1.6-0.7,3.3-1.1,5.1-1.1
			c1.6-0.1,3.1,0.3,4.5,1c1.2,0.6,2.1,1.6,2.7,2.8c0.6,1.2,1,2.6,1.1,4c0.1,1.6,0,3.2-0.4,4.8c-0.4,1.7-0.9,3.4-1.7,4.9
			c-0.7,1.5-1.6,2.8-2.8,4c-1.1,1.1-2.4,2-3.9,2.6c-1.6,0.7-3.4,1-5.1,1c-0.8,0-1.5-0.1-2.3-0.3c-0.7-0.2-1.5-0.5-2.1-0.9
			c-0.7-0.4-1.2-0.9-1.8-1.5c-0.5-0.6-0.9-1.3-1.1-2.1h-0.1L299.6,150.7z M302.1,138.7c-0.3,1.3-0.4,2.7-0.3,4
			c0.1,1.1,0.4,2.2,0.9,3.2c0.5,0.9,1.2,1.6,2.1,2.1c1,0.5,2.1,0.8,3.3,0.8c1.1,0,2.3-0.2,3.4-0.6c1.1-0.4,2.1-1,3-1.8
			c0.9-0.8,1.7-1.8,2.3-2.9c0.7-1.3,1.2-2.6,1.5-4c0.4-1.4,0.5-2.8,0.5-4.2c0-1.2-0.3-2.3-0.7-3.4c-0.4-1-1.2-1.8-2.1-2.3
			c-1.1-0.6-2.3-0.9-3.5-0.9c-1.2,0-2.4,0.3-3.5,0.8c-1.1,0.6-2.1,1.3-3,2.2c-0.9,0.9-1.7,2-2.3,3.2
			C302.8,136,302.4,137.3,302.1,138.7z"/>
	</g>
	<g id="Logo">
		<path class="st0" d="M85.6,62H68.8v39.5H58.6V62H42.2l5.6-8.1H80L85.6,62z"/>
		<path class="st0" d="M334.1,61.6h-16.7v39.5h-10.3V61.6h-16.4l5.6-8.1h32.3L334.1,61.6z"/>
		<path class="st0" d="M100.3,61.9v11.2h26.5v7.7h-26.5v12.7h30.9l-6,8h-35V54h35l6,7.9H100.3z"/>
		<path class="st0" d="M202.9,61.4v11.2h26.5v7.7h-26.5V93h30.9l-6,8h-35V53.5h35l6,8H202.9z"/>
		<path class="st0" d="M185.1,88.2c-1.2,2.6-2.8,5.1-4.8,7.1c-3.9,3.9-10,7.3-19,7.3c-14.6,0-25.7-9.2-25.7-25.1
			c0-16.2,12.1-24.9,26.1-24.9c17.1,0,21.2,11.4,22.4,14.7l-10.3,2.3c-0.3-1.7-1-3.3-2-4.7c-1.2-1.5-4.2-4.2-9.9-4.2
			c-8.9,0-15.2,6.4-15.2,16.6c0,10.8,6.6,16.8,15.3,16.8c4,0.1,7.9-1.6,10.5-4.6c1.3-1.4,2.2-3.1,2.9-4.9L185.1,88.2z"/>
		<path class="st0" d="M275.5,54h10.1v47.5h-9l-24-33.3l0.6,33.3h-10V54h9.3l24.2,33.6L275.5,54z"/>
		<path class="st0" d="M339,54h17.5c7.3,0.1,12.2,0.1,17,3.4c3.9,2.6,6.2,7,6.1,11.7c0,9.1-7.7,12.3-10.8,13.1l12.2,19.3h-11.7
			l-10.9-17.7h-9.2v17.7H339L339,54z M349.2,61.6v14.9h3.6c3.5,0,4.8-0.1,6.8-0.1c2.3-0.1,9.6-0.4,9.6-7.3c0.1-2.8-1.7-5.4-4.4-6.4
			c-2.2-0.9-4.8-1-10.9-1L349.2,61.6z"/>
		<path class="st0" d="M401.1,54v47.5H391V54H401.1z"/>
		<path class="st0" d="M470.2,97.5l-11-7.3c2.3-3.7,3.5-8,3.5-12.4c0-13.8-11.8-25-26.3-25s-26.3,11.2-26.3,25s11.8,25,26.3,25
			c6.3,0,12.4-2.2,17.2-6.2l7.4,5L470.2,97.5z M436.4,94.4c-8.4,0-15.3-7.4-15.3-16.6s6.8-16.6,15.3-16.6s15.3,7.4,15.3,16.6
			c0,2.3-0.4,4.5-1.3,6.6l-4.9-3.2l-7,5.3l7,4.6C442.9,93.3,439.7,94.4,436.4,94.4z"/>
	</g>
	<g id="Shapes">
		<polygon class="st0" points="16.2,0 33.5,29.3 65.5,17.1 37.9,15.1 		"/>
		<polygon class="st0" points="33.4,29.3 65.5,17.1 37.9,15.1 		"/>
		<polygon class="st0" points="0,15.4 25,34.5 14,60.7 14.6,38.5 		"/>
		<polygon class="st0" points="25,34.5 14,60.7 14.6,38.5 		"/>
		<polygon class="st0" points="0,15.4 25,34.5 26.4,33.7 1.1,14.9 		"/>
		<polygon class="st0" points="14,60.7 25,34.5 26.4,33.7 15.5,60 		"/>
		<polygon class="st0" points="67.6,37.5 36.2,38.7 30.1,66.5 42.4,48 		"/>
		<polygon class="st0" points="36.2,38.7 30.1,66.5 42.4,48 		"/>
		<polygon class="st0" points="67.6,37.5 36.2,38.7 35.5,37.4 66.9,36.5 		"/>
		<polygon class="st0" points="30.1,66.5 36.2,38.7 35.5,37.4 29.3,65 		"/>
		<polygon class="st0" points="16.2,0 33.4,29.3 33,30.6 15.9,1.5 		"/>
		<polygon class="st0" points="33.4,29.3 33,30.7 65.1,18.4 65.5,17.1 		"/>
		<polygon class="st1" points="19.5,5.5 28,20 36.5,19.8 37.9,15.1 		"/>
		<polygon class="st2" points="40.5,26.6 56.1,20.7 47.4,15.8 37.9,15.1 		"/>
		<polygon class="st3" points="60.7,16.8 55.9,20.8 48.1,23.7 47.4,15.8 		"/>
		<polygon class="st2" points="36.1,28.3 57.5,20.2 57.5,16.5 43.5,15.6 		"/>
		<polygon class="st4" points="33.5,29.3 37.9,15.1 16.2,0 		"/>
		<polygon class="st4" points="33.5,29.3 37.9,15.1 65.5,17.1 		"/>
		<polygon class="st1" points="22.1,10.1 27.4,7.8 33.4,12 33.5,29.3 		"/>
		<polygon class="st1" points="27.3,18.9 28.8,8.8 20,2.7 20.9,8 		"/>
		<polygon class="st1" points="63.1,37.7 46.5,38.3 39.4,43.5 42.4,48 		"/>
		<polygon class="st4" points="34.5,46.1 33.6,50.3 34.7,59.7 42.4,48 		"/>
		<polygon class="st5" points="33.6,61.2 30.9,62.9 33.3,51.7 37.1,55.9 		"/>
		<polygon class="st2" points="35.6,41.2 31.5,60.1 32.5,62.8 40.5,50.8 		"/>
		<polygon class="st4" points="36.2,38.7 42.4,48 67.6,37.5 		"/>
		<polygon class="st4" points="36.2,38.7 42.4,48 30.1,66.5 		"/>
		<polygon class="st1" points="57.3,37.9 54.9,42.8 47.5,45.8 36.2,38.7 		"/>
		<polygon class="st1" points="36.2,38.7 39.8,51.9 36.2,57.2 32.1,57.1 		"/>
		<polygon class="st1" points="48.2,38.2 53.7,43.3 64,39 60,37.8 		"/>
		<polygon class="st1" points="3.2,17.8 16.8,28.2 19.7,36.5 14.6,38.5 		"/>
		<polygon class="st1" points="24.9,34.8 14.5,42.8 14.2,52.3 18.3,50.4 		"/>
		<polygon class="st4" points="22.6,40.4 21.2,43.7 14.2,53.4 14.6,38.5 		"/>
		<polygon class="st5" points="14.2,54.4 15.2,57.9 20,46.5 14.3,47.8 		"/>
		<polygon class="st6" points="24.1,36.7 17.1,53.4 14.4,44.3 14.5,40.9 		"/>
		<polygon class="st4" points="25,34.5 14.6,38.5 0,15.4 		"/>
		<polygon class="st4" points="25,34.5 14.6,38.5 14,60.8 		"/>
		<polygon class="st1" points="8,21.5 7.3,27 11.8,34 25,34.5 		"/>
		<polygon class="st1" points="15.4,27.2 8.2,28.4 2.2,18.9 6,20 		"/>
		<polygon class="st0" points="61.8,16.9 54.2,16.3 60,19.2 65.5,17.1 		"/>
		<polyline class="st0" points="33.5,29.3 46.6,24.3 37.9,15.1 		"/>
		<polygon class="st3" points="50.4,16.1 58.2,16.6 52.7,21.9 		"/>
		<polygon class="st7" points="33.4,12.1 33.4,29.2 22.2,10.1 		"/>
		<polygon class="st8" points="22.2,10.1 27.4,7.8 25.2,15.2 		"/>
		<polygon class="st8" points="26.7,17.8 33.5,12.1 29.7,22.9 		"/>
		<polygon class="st0" points="33.6,50.4 31.2,61.4 34.7,59.7 		"/>
		<polygon class="st9" points="32.1,57.1 31.1,62 34.7,59.7 		"/>
		<polygon class="st10" points="42.1,38.5 47.4,38.3 45,46.8 		"/>
		<polygon class="st10" points="48.2,38.2 45.4,46.7 53.7,43.3 		"/>
		<polygon class="st11" points="14.6,42.6 19.7,47.1 22.2,41.6 		"/>
		<polygon class="st1" points="8.3,28.5 12,34.4 12.7,25.2 		"/>
		<polygon class="st11" points="14.6,38.5 10.7,32.3 21,31.4 		"/>
	</g>
	<g id="_">
		<path class="st0" d="M478.5,59.8c0,1-0.2,1.9-0.5,2.8c-0.7,1.6-2,2.9-3.6,3.6c-0.8,0.3-1.7,0.5-2.6,0.5c-0.9,0-1.9-0.2-2.8-0.5
			c-0.8-0.3-1.5-0.8-2.1-1.4c-0.6-0.6-1.1-1.4-1.4-2.2c-0.3-0.9-0.5-1.8-0.5-2.8c0-1,0.2-1.9,0.5-2.8c0.7-1.6,2-2.9,3.6-3.6
			c0.8-0.3,1.7-0.5,2.6-0.5c2.7,0,5.2,1.6,6.2,4.1C478.3,57.8,478.5,58.8,478.5,59.8z M477,59.8c0-0.8-0.1-1.6-0.4-2.3
			c-0.3-0.7-0.6-1.3-1.1-1.8c-0.5-0.5-1-0.9-1.7-1.2c-0.7-0.3-1.4-0.4-2.1-0.4c-0.7,0-1.4,0.1-2.1,0.4c-0.6,0.3-1.2,0.7-1.7,1.2
			c-0.5,0.5-0.9,1.1-1.1,1.8c-0.3,0.7-0.4,1.5-0.4,2.3c0,0.8,0.1,1.5,0.4,2.2c0.2,0.7,0.6,1.3,1.1,1.8c0.5,0.5,1,0.9,1.7,1.2
			c1.4,0.6,2.9,0.6,4.3,0c0.6-0.3,1.2-0.7,1.7-1.2c0.5-0.5,0.9-1.1,1.1-1.8C476.9,61.3,477,60.5,477,59.8z M470.4,63.8h-1.3v-7.7
			h2.9c0.7,0,1.5,0.1,2.1,0.5c0.5,0.4,0.8,1,0.7,1.7c0.1,0.6-0.2,1.1-0.6,1.5c-0.4,0.3-0.9,0.5-1.4,0.6l2.1,3.4h-1.4l-2-3.3h-1.2
			L470.4,63.8z M471.8,59.4c0.2,0,0.5,0,0.7,0c0.2,0,0.4-0.1,0.6-0.2c0.2-0.1,0.3-0.2,0.4-0.4c0.1-0.2,0.2-0.4,0.1-0.7
			c0-0.2,0-0.5-0.2-0.6c-0.1-0.1-0.2-0.2-0.4-0.3c-0.2-0.1-0.3-0.1-0.5-0.1h-0.6h-1.5v2.2L471.8,59.4z"/>
	</g>
	<g id="Dosage">
		<path class="st0" d="M345.5,128.8c-0.1-1.5,0.7-2.9,2-3.6c-0.6-0.5-0.8-1.2-0.8-2c0-1.6,0.9-3.4,2.5-3.4c1,0,1.9,0.8,1.9,2.3
			c0.1,1.4-0.6,2.7-1.8,3.3c0.7,0.5,1,1.4,1,2.2c0,1.6-0.9,3.6-2.7,3.6C346.3,131.3,345.5,130.3,345.5,128.8z M349.3,127.4
			c0-0.9-0.4-1.6-1.1-1.6c-1.1,0-1.7,1.8-1.7,3c0,1.2,0.4,1.7,1.1,1.7C348.8,130.4,349.3,128.6,349.3,127.4L349.3,127.4z
			 M350.2,122.1c0-0.9-0.4-1.4-1-1.4c-1.1,0-1.5,1.8-1.5,2.8c0,0.6,0.2,1.5,0.9,1.5C349.7,124.9,350.2,123.1,350.2,122.1z"/>
		<path class="st0" d="M354.2,128.7h-3.3l0.2-0.9l4.7-7.9h1l-1.5,7.9h0.9l-0.2,0.9h-0.9l-0.5,2.4h-1L354.2,128.7z M354.4,127.8
			l1.1-5.9l-3.5,5.9H354.4z"/>
		<path class="st0" d="M362.9,122.7c0,2.2-0.8,6.5-2.3,8c-0.4,0.4-0.9,0.6-1.4,0.6c-1.1,0-1.9-0.8-1.9-2.9c0-2.1,0.8-6.5,2.3-7.9
			c0.4-0.4,0.9-0.6,1.4-0.6C362.1,119.8,362.9,120.6,362.9,122.7z M359.9,130c1.1-1.1,2-5.4,2-7.4c0-1.5-0.5-1.9-0.9-1.9
			c-0.2,0-0.5,0.1-0.6,0.3c-1.1,1.1-2,5.4-2,7.4c0,1.5,0.5,1.9,0.9,1.9C359.5,130.3,359.7,130.2,359.9,130L359.9,130z"/>
		<path class="st0" d="M367.3,122.7h1l-0.2,1.2c0.3-0.7,1-1.2,1.8-1.3c0.8,0,1.4,0.6,1.4,1.4c0.4-0.8,1.2-1.3,2-1.4
			c0.9,0,1.5,0.7,1.5,1.7c0,0.4-0.1,0.9-0.2,1.3l-1.1,5.6h-1l1.1-5.5c0.1-0.4,0.1-0.8,0.1-1.2c0-0.7-0.3-1.1-0.9-1.1
			c-0.7,0-1.5,0.8-1.6,1.8l-1.1,5.9h-1l1.1-5.5c0.1-0.4,0.1-0.8,0.1-1.2c0-0.7-0.3-1.1-0.9-1.1c-0.8,0-1.5,0.9-1.7,1.9l-1.1,5.8h-1
			L367.3,122.7z"/>
		<path class="st0" d="M375,132.8l0.2-1c0.6,0.3,1.2,0.5,1.9,0.5c0.5,0,0.9-0.1,1.3-0.4c0.3-0.4,0.5-0.8,0.6-1.3l0.3-1.4
			c-0.3,0.8-1,1.4-1.8,1.5c-1,0-1.6-0.9-1.6-2.6c0-1.8,0.6-3.5,1.7-4.9c0.3-0.4,0.8-0.6,1.2-0.6c0.9,0,1.3,0.8,1.5,1.7l0.3-1.5h1
			l-1.6,8c-0.1,0.7-0.4,1.3-0.8,1.8c-0.6,0.5-1.3,0.8-2,0.7C376.4,133.3,375.7,133.1,375,132.8z M378.5,129.4c0.9-1.2,1.3-2.6,1.3-4
			c0-1.2-0.4-1.9-1-1.9c-0.3,0-0.5,0.1-0.7,0.4c-0.9,1.2-1.3,2.7-1.3,4.2c0,1.1,0.4,1.7,1,1.7C378,129.7,378.3,129.6,378.5,129.4z"
			/>
		<path class="st0" d="M395.2,121.2l-1.3,0.5l0.2-1.2l1.5-0.6h0.8l-2.1,11.2h-1L395.2,121.2z"/>
		<path class="st0" d="M396,130.4l3.2-4.8c1-1.5,1.5-2.4,1.5-3.4c0.1-0.7-0.4-1.3-1.1-1.4c-0.1,0-0.1,0-0.2,0
			c-0.6,0-1.1,0.2-1.6,0.5l0.2-1.1c0.5-0.3,1-0.4,1.5-0.4c1.1-0.1,2.1,0.8,2.2,2c0,0.1,0,0.2,0,0.3c-0.1,1.4-0.7,2.7-1.6,3.8
			l-2.9,4.3h3.1l-0.2,1h-4.4L396,130.4z"/>
		<path class="st0" d="M407.7,122.7c0,2.2-0.8,6.5-2.3,8c-0.4,0.4-0.9,0.6-1.4,0.6c-1.1,0-1.9-0.8-1.9-2.9c0-2.1,0.8-6.5,2.3-7.9
			c0.4-0.4,0.9-0.6,1.4-0.6C406.9,119.8,407.7,120.6,407.7,122.7z M404.7,130c1.1-1.1,2-5.4,2-7.4c0-1.5-0.5-1.9-1-1.9
			c-0.2,0-0.5,0.1-0.6,0.3c-1.1,1.1-2,5.4-2,7.4c0,1.5,0.5,1.9,0.9,1.9C404.3,130.3,404.5,130.2,404.7,130L404.7,130z"/>
		<path class="st0" d="M413.9,122.7c0,2.2-0.8,6.5-2.3,8c-0.4,0.4-0.9,0.6-1.4,0.6c-1.1,0-1.9-0.8-1.9-2.9c0-2.1,0.8-6.5,2.3-7.9
			c0.4-0.4,0.9-0.6,1.4-0.6C413.1,119.8,413.9,120.6,413.9,122.7z M410.9,130c1.1-1.1,2-5.4,2-7.4c0-1.5-0.4-1.9-0.9-1.9
			c-0.2,0-0.5,0.1-0.6,0.3c-1.1,1.1-2,5.4-2,7.4c0,1.5,0.5,1.9,0.9,1.9C410.5,130.3,410.7,130.2,410.9,130L410.9,130z"/>
		<path class="st0" d="M418.3,122.7h1l-0.2,1.2c0.3-0.7,1-1.2,1.8-1.3c0.8,0,1.4,0.6,1.4,1.4c0.4-0.8,1.1-1.3,2-1.4
			c0.9,0,1.4,0.7,1.4,1.7c0,0.4-0.1,0.9-0.2,1.3l-1.1,5.6h-1l1.1-5.5c0.1-0.4,0.1-0.8,0.1-1.2c0-0.7-0.3-1.1-0.9-1.1
			c-0.7,0-1.4,0.8-1.6,1.8l-1.1,5.9h-1l1.1-5.5c0.1-0.4,0.1-0.8,0.1-1.2c0-0.7-0.3-1.1-0.9-1.1c-0.8,0-1.5,0.9-1.7,1.9l-1.1,5.8h-1
			L418.3,122.7z"/>
		<path class="st0" d="M426,132.8l0.2-1c0.6,0.3,1.2,0.5,1.9,0.5c0.5,0,0.9-0.1,1.3-0.4c0.3-0.4,0.5-0.8,0.6-1.3l0.3-1.4
			c-0.3,0.8-1,1.4-1.8,1.5c-0.9,0-1.6-0.9-1.6-2.6c0-1.8,0.6-3.5,1.7-4.9c0.3-0.4,0.8-0.6,1.2-0.6c0.9,0,1.3,0.8,1.5,1.7l0.3-1.5h1
			l-1.6,8c-0.1,0.7-0.3,1.3-0.8,1.8c-0.5,0.5-1.3,0.8-2,0.7C427.4,133.3,426.7,133.1,426,132.8z M429.5,129.4c0.9-1.2,1.3-2.6,1.3-4
			c0-1.2-0.4-1.9-1-1.9c-0.3,0-0.5,0.1-0.7,0.4c-0.9,1.2-1.3,2.7-1.3,4.2c0,1.1,0.4,1.7,1,1.7C429,129.7,429.3,129.6,429.5,129.4
			L429.5,129.4z"/>
		<path class="st0" d="M341.3,139.1h1l-2.2,11.2h-1L341.3,139.1z"/>
		<path class="st0" d="M344.3,139.1h1l1.5,8.5l1.7-8.5h1l-2.2,11.2h-0.9l-1.5-8.8l-1.7,8.7h-1L344.3,139.1z"/>
		<path class="st0" d="M348.5,150.1l0.2-1c0.3,0.2,0.6,0.4,1,0.4c0.2,0,0.5-0.1,0.7-0.2c0.2-0.3,0.4-0.7,0.4-1.1l1.8-9h1l-1.7,8.9
			c-0.1,0.7-0.3,1.4-0.8,1.9c-0.4,0.3-0.8,0.5-1.3,0.5C349.3,150.4,348.9,150.3,348.5,150.1z"/>
		<path class="st0" d="M355.4,139.1h3.9l-0.2,1h-2.9l-0.8,4.1h2.6l-0.2,1h-2.6l-0.8,4.2h2.9l-0.2,1h-4L355.4,139.1z"/>
		<path class="st0" d="M359.1,146.8c0-2.1,0.7-5.4,2.3-6.9c0.8-0.9,2.2-1.1,3.2-0.5l-0.2,1.1c-0.3-0.3-0.7-0.5-1.1-0.5
			c-0.4,0-0.8,0.2-1.1,0.5c-1.1,1.1-2,4.1-2,6.2c0,1.7,0.4,2.7,1.5,2.7c0.4,0,0.8-0.1,1.1-0.3l-0.2,1c-0.3,0.2-0.7,0.3-1.1,0.3
			C359.9,150.4,359.1,149.3,359.1,146.8z"/>
		<path class="st0" d="M367,140.1h-1.7l0.2-1h4.4l-0.2,1h-1.7l-2,10.3h-1L367,140.1z"/>
		<path class="st0" d="M371.2,139.1h1l-2.2,11.2h-1L371.2,139.1z"/>
		<path class="st0" d="M378.5,142.3c0,2.3-0.8,5.9-2.3,7.4c-0.4,0.5-1,0.8-1.7,0.8c-1.4,0-2.1-1.2-2.1-3.3c0-2.3,0.8-5.9,2.3-7.4
			c0.4-0.5,1-0.8,1.7-0.8C377.8,139,378.5,140.2,378.5,142.3z M375.5,149.1c1.1-1.2,2-5,2-6.9c0-1.6-0.4-2.3-1.1-2.3
			c-0.3,0-0.7,0.2-0.9,0.4c-1.1,1.1-2,5-2,6.9c0,1.6,0.4,2.3,1.1,2.3C375,149.5,375.3,149.4,375.5,149.1L375.5,149.1z"/>
		<path class="st0" d="M380.9,139.1h1l1.5,8.4l1.7-8.5h1l-2.2,11.2h-0.9l-1.6-8.7l-1.7,8.7h-1L380.9,139.1z"/>
		<path class="st0" d="M390.5,139.1h3.8l-0.2,1h-2.7l-0.8,4.2h2.5l-0.2,1h-2.5l-1,5.1h-1L390.5,139.1z"/>
		<path class="st0" d="M399.9,142.3c0,2.3-0.8,5.9-2.3,7.4c-0.4,0.5-1,0.8-1.7,0.8c-1.4,0-2.1-1.2-2.1-3.3c0-2.3,0.8-5.9,2.3-7.4
			c0.4-0.5,1-0.8,1.7-0.8C399.2,139,399.9,140.2,399.9,142.3z M396.9,149.1c1.1-1.2,2-5,2-6.9c0-1.6-0.4-2.3-1.1-2.3
			c-0.3,0-0.7,0.2-0.9,0.4c-1.1,1.1-2,5-2,6.9c0,1.6,0.4,2.3,1.1,2.3C396.4,149.5,396.7,149.4,396.9,149.1L396.9,149.1z"/>
		<path class="st0" d="M403,146c-0.2,0-0.4,0-0.6,0h-0.5l-0.8,4.4h-1l2.2-11.2h1.3c0.8,0,1.6,0.2,2.2,0.8c0.5,0.5,0.8,1.3,0.8,2
			c0,1.1-0.4,2.2-1.2,3c-0.3,0.4-0.8,0.6-1.2,0.8l1,4.6H404L403,146z M402.5,145.1c0.8,0.1,1.5-0.2,2-0.7c0.6-0.7,0.9-1.5,0.9-2.4
			c0-0.5-0.1-1-0.5-1.3c-0.4-0.4-0.9-0.5-1.5-0.5h-0.4l-1,5L402.5,145.1z"/>
		<path class="st0" d="M411.4,139.1h1l-2.1,11.2h-1L411.4,139.1z"/>
		<path class="st0" d="M413.9,139.1h1l-0.1,9.2l3.5-9.2h1.1l-4.4,11.3h-1.1L413.9,139.1z"/>
		<path class="st0" d="M421.8,148.2c0-0.5,0.1-1,0.2-1.4l1.5-7.7h1l-1.5,7.8c-0.1,0.4-0.1,0.8-0.1,1.2c-0.1,0.7,0.4,1.3,1.1,1.4
			c0.1,0,0.1,0,0.2,0c0.4,0,0.7-0.1,1-0.4c0.4-0.5,0.7-1.1,0.8-1.8l1.6-8.2h1l-1.6,8.3c-0.1,0.9-0.4,1.7-1,2.4
			c-0.5,0.5-1.1,0.7-1.8,0.7c-1.1,0.1-2.1-0.8-2.2-1.9C421.8,148.5,421.8,148.4,421.8,148.2z"/>
		<path class="st0" d="M427.8,149.6l0.2-1.1c0.5,0.6,1.1,0.9,1.9,1c0.9,0,1.6-0.8,1.5-1.6c0,0,0-0.1,0-0.1c-0.1-0.9-0.4-1.9-0.9-2.7
			c-0.7-1-1.1-2.1-1.1-3.3c0-0.7,0.3-1.5,0.8-2c0.5-0.5,1.1-0.7,1.8-0.7c0.7,0,1.3,0.3,1.8,0.7l-0.2,1.1c-0.4-0.5-1-0.8-1.7-0.8
			c-0.8,0-1.5,0.7-1.5,1.5c0,0,0,0.1,0,0.1c0.1,0.9,0.4,1.8,0.9,2.6c0.7,1,1.1,2.2,1.2,3.4c0,0.8-0.3,1.6-0.8,2.1
			c-0.5,0.5-1.1,0.7-1.8,0.7C429.1,150.4,428.4,150.1,427.8,149.6z"/>
		<path class="st0" d="M435.6,139.1h3.9l-0.2,1h-2.9l-0.8,4.1h2.6l-0.2,1h-2.6l-0.8,4.2h3l-0.2,1h-4L435.6,139.1z"/>
		<path class="st0" d="M388.2,116.3h1.1l-3.6,18.3h-1.1L388.2,116.3z"/>
	</g>
</g>
</svg>
